<?xml version="1.0" encoding="utf-8"?>
<!-- Generator: Adobe Illustrator 21.0.0, SVG Export Plug-In . SVG Version: 6.00 Build 0)  -->
<svg version="1.1" id="Layer_1" xmlns="http://www.w3.org/2000/svg" xmlns:xlink="http://www.w3.org/1999/xlink" x="0px" y="0px"
	 viewBox="0 0 48 48" style="enable-background:new 0 0 48 48;" xml:space="preserve">
<style type="text/css">
	.st0{fill:none;}
	.st1{fill:#303030;}
</style>
<g>
	<path class="st0" d="M20.9,8.6c-0.1,0-0.1,0-0.2,0c-0.9,0.1-1.5,0.9-1.4,1.8c0.1,0.9,0.9,1.5,1.7,1.4c0.9-0.1,1.5-0.9,1.4-1.8
		C22.3,9.2,21.7,8.6,20.9,8.6z"/>
	<path class="st0" d="M19.8,36.9c-0.2-0.1-0.3-0.1-0.5-0.1c-0.7,0-1.3,0.4-1.5,1.1c-0.1,0.4-0.1,0.8,0.1,1.2
		c0.2,0.4,0.5,0.7,0.9,0.8c0.8,0.3,1.8-0.2,2-1c0,0,0,0,0,0c0.1-0.4,0.1-0.8-0.1-1.2C20.5,37.3,20.2,37,19.8,36.9z"/>
	<path class="st0" d="M11.4,16.2c-0.2-0.2-0.5-0.2-0.8-0.2c-0.6,0-1.1,0.3-1.4,0.8C9,17,8.9,17.5,9,17.9c0.1,0.4,0.3,0.8,0.7,1
		c0.7,0.5,1.7,0.2,2.2-0.5c0.2-0.4,0.3-0.8,0.2-1.2C12.1,16.7,11.8,16.4,11.4,16.2z"/>
	<path class="st0" d="M9.9,28.5c-0.2,0-0.4,0-0.5,0.1c-0.8,0.3-1.3,1.2-1,2c0.3,0.8,1.2,1.3,2,1c0.8-0.3,1.3-1.2,1-2
		C11.2,28.9,10.6,28.5,9.9,28.5z"/>
	<path class="st0" d="M31.6,34.7c-0.3,0-0.6,0.1-0.8,0.2c-0.8,0.5-1,1.5-0.5,2.2c0.4,0.7,1.5,0.9,2.2,0.5c0.7-0.5,1-1.5,0.5-2.2
		C32.7,34.9,32.2,34.7,31.6,34.7z"/>
	<path class="st0" d="M40.2,19.3c-0.7,0-1.5,0.1-2.3,0.2c-0.9,0.1-1.7,0.3-2.6,0.3c-2,0-3.6-0.7-5-2.1c-2.6-2.6-2.1-5.4-1.8-7.7
		c0.3-2.3,0.6-4.1-1.5-6.2C25.8,2.6,24,2,21.8,2C17,2,11.4,4.9,8.6,7.7C4.4,12,2,17.6,2,23.6c0,6,2.3,11.6,6.5,15.9
		c4.2,4.2,9.8,6.5,15.8,6.5c6,0,11.7-2.3,15.9-6.6c0.7-0.7,1.3-1.5,1.9-2.4H38c-0.6,0-1-0.4-1-1s0.4-1,1-1h5.5c0.4-0.6,0.7-1.3,1-2
		H41c-0.6,0-1-0.4-1-1s0.4-1,1-1h4c0.1,0,0.1,0,0.2,0c0.1-0.4,0.2-0.8,0.3-1.1c0.6-2.2,1.2-6.4-1.3-8.9
		C42.6,19.5,41.3,19.3,40.2,19.3z M11.1,33.4L11.1,33.4c-0.4,0.1-0.8,0.2-1.2,0.2c-1.5,0-2.9-1-3.4-2.4c-0.6-1.9,0.3-3.9,2.2-4.6
		c0.4-0.1,0.8-0.2,1.2-0.2c1.5,0,2.9,1,3.4,2.4C13.9,30.7,12.9,32.8,11.1,33.4z M13.6,19.4L13.6,19.4c-0.7,1.1-1.8,1.7-3.1,1.7
		c-0.7,0-1.3-0.2-1.9-0.5c-0.8-0.5-1.4-1.3-1.6-2.2c-0.2-0.9,0-1.9,0.5-2.7c0.7-1.1,1.8-1.7,3.1-1.7c0.7,0,1.3,0.2,1.9,0.5
		c0.8,0.5,1.4,1.3,1.6,2.2C14.3,17.6,14.1,18.6,13.6,19.4z M22.6,39.6C22.1,41,20.7,42,19.2,42c-0.4,0-0.8-0.1-1.2-0.2
		c-0.9-0.3-1.6-1-2-1.8c-0.4-0.9-0.5-1.8-0.2-2.7c0.5-1.4,1.9-2.4,3.4-2.4c0.4,0,0.8,0.1,1.2,0.2c0.9,0.3,1.6,1,2,1.8
		C22.9,37.7,22.9,38.7,22.6,39.6z M21.2,13.8C21.2,13.8,21.2,13.8,21.2,13.8c-0.1,0-0.3,0-0.4,0c-1.8,0-3.3-1.4-3.5-3.2
		c-0.2-2,1.2-3.8,3.2-4c0.1,0,0.3,0,0.4,0c1.8,0,3.3,1.4,3.6,3.2C24.6,11.8,23.2,13.6,21.2,13.8z M33.5,39.3
		c-0.6,0.4-1.2,0.6-1.9,0.6c-1.2,0-2.4-0.6-3-1.7c-1-1.7-0.5-3.9,1.1-5c0.6-0.4,1.2-0.6,1.9-0.6c1.2,0,2.4,0.6,3,1.7
		C35.7,36,35.2,38.2,33.5,39.3z M41.3,25.6C41.3,25.6,41.3,25.6,41.3,25.6c-0.2,1.8-1.8,3.2-3.6,3.2c-0.1,0-0.3,0-0.4,0
		c-1-0.1-1.8-0.6-2.4-1.3c-0.6-0.8-0.9-1.7-0.8-2.6c0.2-2,2-3.4,4-3.2c1,0.1,1.8,0.6,2.4,1.3C41.1,23.8,41.4,24.7,41.3,25.6z"/>
	<path class="st0" d="M37.9,23.7c-0.1,0-0.1,0-0.2,0c-0.8,0-1.5,0.6-1.6,1.4c0,0.4,0.1,0.8,0.3,1.2c0.3,0.3,0.6,0.5,1.1,0.6
		c0.1,0,0.1,0,0.2,0c0.8,0,1.5-0.6,1.6-1.4c0-0.4-0.1-0.8-0.3-1.2C38.7,23.9,38.3,23.7,37.9,23.7z"/>
	<path class="st1" d="M45.6,19.6c-2.1-2.1-4-2.3-5.3-2.3c-0.9,0-1.7,0.1-2.6,0.2c-0.8,0.1-1.6,0.2-2.3,0.2c-1.5,0-2.6-0.5-3.6-1.5
		c-1.8-1.8-1.5-3.8-1.2-6c0.4-2.4,0.7-5.1-2.1-7.9C26.8,0.8,24.6,0,21.8,0C16.4,0,10.3,3.2,7.2,6.3C2.6,10.9,0,17.1,0,23.6
		c0,6.5,2.5,12.7,7.1,17.3c4.6,4.6,10.7,7.1,17.2,7.1c6.6,0,12.7-2.6,17.4-7.2c2.5-2.5,4.7-6.6,5.7-10.4
		C48.1,27.7,48.8,22.8,45.6,19.6z M45.5,29.9c-0.1,0.4-0.2,0.7-0.3,1.1c-0.1,0-0.1,0-0.2,0h-4c-0.6,0-1,0.4-1,1s0.4,1,1,1h3.4
		c-0.3,0.7-0.6,1.4-1,2H38c-0.6,0-1,0.4-1,1s0.4,1,1,1h4.2c-0.6,0.9-1.3,1.7-1.9,2.4C36,43.7,30.4,46,24.3,46
		c-6,0-11.6-2.3-15.8-6.5C4.3,35.2,2,29.6,2,23.6c0-6,2.4-11.6,6.6-15.9C11.4,4.9,17,2,21.8,2C24,2,25.8,2.6,27,3.8
		c2.1,2.1,1.8,3.9,1.5,6.2c-0.3,2.3-0.7,5.1,1.8,7.7c1.4,1.4,3,2.1,5,2.1c0.9,0,1.8-0.1,2.6-0.3c0.8-0.1,1.6-0.2,2.3-0.2
		c1.1,0,2.4,0.2,3.9,1.7C46.7,23.5,46.1,27.7,45.5,29.9z"/>
	<path class="st1" d="M20.9,6.6c-0.1,0-0.3,0-0.4,0c-2,0.2-3.4,2-3.2,4c0.2,1.8,1.7,3.2,3.5,3.2c0.1,0,0.3,0,0.4,0c0,0,0,0,0,0
		c2-0.2,3.4-2,3.2-4C24.2,8,22.7,6.6,20.9,6.6z M21,11.8c-0.9,0.1-1.7-0.5-1.7-1.4c-0.1-0.9,0.5-1.7,1.4-1.8c0.1,0,0.1,0,0.2,0
		c0.8,0,1.5,0.6,1.6,1.4C22.5,10.9,21.9,11.7,21,11.8z"/>
	<path class="st1" d="M12.5,14.5c-0.6-0.4-1.2-0.5-1.9-0.5c-1.2,0-2.4,0.6-3.1,1.7c-0.5,0.8-0.7,1.8-0.5,2.7
		c0.2,0.9,0.8,1.7,1.6,2.2c0.6,0.4,1.2,0.5,1.9,0.5c1.2,0,2.4-0.6,3.1-1.7l0,0c0.5-0.8,0.7-1.8,0.5-2.7C13.9,15.8,13.3,15,12.5,14.5
		z M11.9,18.4c-0.5,0.7-1.5,1-2.2,0.5c-0.4-0.2-0.6-0.6-0.7-1c-0.1-0.4,0-0.8,0.2-1.2c0.3-0.5,0.8-0.8,1.4-0.8
		c0.3,0,0.6,0.1,0.8,0.2c0.4,0.2,0.6,0.6,0.7,1C12.2,17.6,12.2,18,11.9,18.4z"/>
	<path class="st1" d="M9.9,26.5c-0.4,0-0.8,0.1-1.2,0.2c-1.9,0.7-2.9,2.7-2.2,4.6c0.5,1.4,1.9,2.4,3.4,2.4c0.4,0,0.8-0.1,1.2-0.2h0
		c1.9-0.7,2.9-2.7,2.2-4.6C12.8,27.4,11.4,26.5,9.9,26.5z M10.4,31.6c-0.8,0.3-1.7-0.2-2-1c-0.3-0.8,0.2-1.7,1-2
		c0.2-0.1,0.4-0.1,0.5-0.1c0.7,0,1.3,0.4,1.5,1.1C11.7,30.4,11.2,31.3,10.4,31.6z"/>
	<path class="st1" d="M20.4,35c-0.4-0.1-0.8-0.2-1.2-0.2c-1.5,0-2.9,1-3.4,2.4c-0.3,0.9-0.3,1.9,0.2,2.7c0.4,0.9,1.1,1.5,2,1.8
		c0.4,0.1,0.8,0.2,1.2,0.2c1.5,0,2.9-1,3.4-2.4c0.3-0.9,0.3-1.9-0.2-2.7C22,36,21.3,35.3,20.4,35z M20.7,38.9
		C20.7,38.9,20.7,38.9,20.7,38.9c-0.3,0.8-1.2,1.3-2,1c-0.4-0.1-0.7-0.4-0.9-0.8c-0.2-0.4-0.2-0.8-0.1-1.2c0.2-0.6,0.8-1.1,1.5-1.1
		c0.2,0,0.4,0,0.5,0.1c0.4,0.1,0.7,0.4,0.9,0.8C20.8,38.1,20.9,38.5,20.7,38.9z"/>
	<path class="st1" d="M31.6,32.7c-0.7,0-1.3,0.2-1.9,0.6c-1.7,1.1-2.2,3.3-1.1,5c0.7,1,1.8,1.7,3,1.7c0.7,0,1.3-0.2,1.9-0.6
		c1.7-1.1,2.2-3.3,1.1-5C34,33.3,32.9,32.7,31.6,32.7z M32.4,37.6c-0.7,0.5-1.7,0.2-2.2-0.5c-0.5-0.7-0.2-1.7,0.5-2.2
		c0.3-0.2,0.5-0.2,0.8-0.2c0.5,0,1,0.3,1.3,0.7C33.4,36.1,33.2,37.1,32.4,37.6z"/>
	<path class="st1" d="M38.1,21.7c-2-0.2-3.8,1.2-4,3.2c-0.1,1,0.2,1.9,0.8,2.6c0.6,0.7,1.4,1.2,2.4,1.3c0.1,0,0.3,0,0.4,0
		c1.8,0,3.4-1.4,3.6-3.2c0,0,0,0,0,0c0.1-1-0.2-1.9-0.8-2.6C39.9,22.3,39.1,21.8,38.1,21.7z M39.3,25.4c-0.1,0.8-0.8,1.4-1.6,1.4
		c-0.1,0-0.1,0-0.2,0c-0.4,0-0.8-0.3-1.1-0.6c-0.3-0.3-0.4-0.7-0.3-1.2c0.1-0.8,0.8-1.4,1.6-1.4c0.1,0,0.1,0,0.2,0
		c0.4,0,0.8,0.3,1.1,0.6C39.2,24.6,39.3,25,39.3,25.4z"/>
</g>
</svg>
