<?xml version="1.0" encoding="utf-8"?>
<!-- Generator: Adobe Illustrator 21.0.0, SVG Export Plug-In . SVG Version: 6.00 Build 0)  -->
<svg version="1.1" id="Layer_1" xmlns="http://www.w3.org/2000/svg" xmlns:xlink="http://www.w3.org/1999/xlink" x="0px" y="0px"
	 viewBox="0 0 48 48" style="enable-background:new 0 0 48 48;" xml:space="preserve">
<style type="text/css">
	.st0{fill:none;}
	.st1{fill:#303030;}
</style>
<g>
	<path class="st0" d="M31,44c-0.6,0-1-0.4-1-1s0.4-1,1-1h8v-2h-6c-0.6,0-1-0.4-1-1s0.4-1,1-1h6v-2h-4c-0.6,0-1-0.4-1-1s0.4-1,1-1h4
		v-3c0-1.7-1.3-3-3-3H2v18h34c1.3,0,2.4-0.8,2.8-2H31z"/>
	<path class="st0" d="M2,20h31V7c0-1.4-1.1-2.5-2.5-2.5c-0.8,0-1.6,0.4-2,1.1C28.3,5.8,28,6,27.6,6h-0.9c-0.4,0-0.8-0.3-0.9-0.6
		C25,3.4,22,2,18.5,2c-2,0-6,1.1-6.8,2c-0.4,0.4-1,0.4-1.4,0C9.5,3.1,5.5,2,3.5,2C2.7,2,2.7,2,2.4,2.2C2.3,2.3,2.2,2.3,2,2.4V20z
		 M29,8c0.6,0,1,0.4,1,1c0,0.6-0.4,1-1,1s-1-0.4-1-1C28,8.4,28.4,8,29,8z M29,14c0.6,0,1,0.4,1,1c0,0.6-0.4,1-1,1s-1-0.4-1-1
		C28,14.4,28.4,14,29,14z M23,8c0.6,0,1,0.4,1,1c0,0.6-0.4,1-1,1s-1-0.4-1-1C22,8.4,22.4,8,23,8z M23,14c0.6,0,1,0.4,1,1
		c0,0.6-0.4,1-1,1s-1-0.4-1-1C22,14.4,22.4,14,23,14z M17,8c0.6,0,1,0.4,1,1c0,0.6-0.4,1-1,1s-1-0.4-1-1C16,8.4,16.4,8,17,8z M17,14
		c0.6,0,1,0.4,1,1c0,0.6-0.4,1-1,1s-1-0.4-1-1C16,14.4,16.4,14,17,14z M11,8c0.6,0,1,0.4,1,1c0,0.6-0.4,1-1,1s-1-0.4-1-1
		C10,8.4,10.4,8,11,8z M11,14c0.6,0,1,0.4,1,1c0,0.6-0.4,1-1,1s-1-0.4-1-1C10,14.4,10.4,14,11,14z M5,8c0.6,0,1,0.4,1,1
		c0,0.6-0.4,1-1,1S4,9.6,4,9C4,8.4,4.4,8,5,8z M5,14c0.6,0,1,0.4,1,1c0,0.6-0.4,1-1,1s-1-0.4-1-1C4,14.4,4.4,14,5,14z"/>
	<path class="st0" d="M2,22v4h34c0.6,0,1-0.4,1-1v-2c0-0.6-0.4-1-1-1H2z"/>
	<circle class="st1" cx="5" cy="9" r="1"/>
	<circle class="st1" cx="11" cy="9" r="1"/>
	<circle class="st1" cx="17" cy="9" r="1"/>
	<circle class="st1" cx="23" cy="9" r="1"/>
	<circle class="st1" cx="5" cy="15" r="1"/>
	<circle class="st1" cx="11" cy="15" r="1"/>
	<circle class="st1" cx="17" cy="15" r="1"/>
	<circle class="st1" cx="23" cy="15" r="1"/>
	<circle class="st1" cx="29" cy="9" r="1"/>
	<circle class="st1" cx="29" cy="15" r="1"/>
	<path class="st1" d="M38.5,26.7c0.3-0.5,0.5-1.1,0.5-1.7v-2c0-1.7-1.3-3-3-3h-1V7c0-2.5-2-4.5-4.5-4.5c-1.2,0-2.4,0.5-3.2,1.4
		C25.9,1.6,22.4,0,18.5,0c-1.9,0-5.6,0.9-7.5,2C9.1,0.9,5.4,0,3.5,0C2.3,0,1.9,0.2,1.4,0.5C1.2,0.6,1,0.7,0.6,0.9C0.2,1,0,1.5,0,1.9
		C0,1.9,0,2,0,2v45c0,0.6,0.4,1,1,1h35c2.8,0,5-2.2,5-5V31C41,29.1,40,27.5,38.5,26.7z M37,23v2c0,0.6-0.4,1-1,1H2v-4h34
		C36.6,22,37,22.4,37,23z M3.5,2c2,0,6,1.1,6.8,2c0.4,0.4,1,0.4,1.4,0c0.8-0.8,4.8-2,6.8-2C22,2,25,3.4,25.8,5.4
		C26,5.7,26.3,6,26.7,6h0.9c0.3,0,0.6-0.2,0.8-0.4c0.5-0.7,1.2-1.1,2-1.1C31.9,4.5,33,5.6,33,7v13H2V2.4c0.2-0.1,0.3-0.2,0.4-0.3
		C2.7,2,2.7,2,3.5,2z M36,46H2V28h34c1.7,0,3,1.3,3,3v3h-4c-0.6,0-1,0.4-1,1s0.4,1,1,1h4v2h-6c-0.6,0-1,0.4-1,1s0.4,1,1,1h6v2h-8
		c-0.6,0-1,0.4-1,1s0.4,1,1,1h7.8C38.4,45.2,37.3,46,36,46z"/>
	<path class="st1" d="M46.3,44.3L46,44.6V30.4l0.3,0.3c0.2,0.2,0.5,0.3,0.7,0.3s0.5-0.1,0.7-0.3c0.4-0.4,0.4-1,0-1.4l-2-2
		c-0.4-0.4-1-0.4-1.4,0l-2,2c-0.4,0.4-0.4,1,0,1.4s1,0.4,1.4,0l0.3-0.3v14.2l-0.3-0.3c-0.4-0.4-1-0.4-1.4,0s-0.4,1,0,1.4l2,2
		c0.1,0.1,0.2,0.2,0.3,0.2C44.7,48,44.9,48,45,48s0.3,0,0.4-0.1c0.1-0.1,0.2-0.1,0.3-0.2l2-2c0.4-0.4,0.4-1,0-1.4
		S46.7,43.9,46.3,44.3z"/>
</g>
</svg>
