<?xml version="1.0" encoding="utf-8"?>
<!-- Generator: Adobe Illustrator 21.0.0, SVG Export Plug-In . SVG Version: 6.00 Build 0)  -->
<svg version="1.1" id="Layer_1" xmlns="http://www.w3.org/2000/svg" xmlns:xlink="http://www.w3.org/1999/xlink" x="0px" y="0px"
	 viewBox="0 0 48 48" style="enable-background:new 0 0 48 48;" xml:space="preserve">
<style type="text/css">
	.st0{fill:none;}
	.st1{fill:#303030;}
</style>
<g>
	<path class="st0" d="M36,36c-0.6,0-1-0.4-1-1s0.4-1,1-1h10v-4h-5c-0.6,0-1-0.4-1-1s0.4-1,1-1h5V14c0-1.4-1.1-2.5-2.5-2.5
		c-0.8,0-1.6,0.4-2,1.1C41.3,12.8,41,13,40.6,13h-0.9c-0.4,0-0.8-0.3-0.9-0.6C38,10.4,35,9,31.5,9c-2,0-6,1.1-6.8,2
		c-0.4,0.4-1,0.4-1.4,0c-0.8-0.8-4.8-2-6.8-2C13,9,10,10.4,9.2,12.4C9,12.7,8.7,13,8.3,13H7.4c-0.3,0-0.6-0.2-0.8-0.4
		c-0.5-0.7-1.2-1.1-2-1.1C3.1,11.5,2,12.6,2,14v25h44v-3H36z M42,16c0.6,0,1,0.4,1,1c0,0.6-0.4,1-1,1s-1-0.4-1-1
		C41,16.4,41.4,16,42,16z M42,22c0.6,0,1,0.4,1,1c0,0.6-0.4,1-1,1s-1-0.4-1-1C41,22.4,41.4,22,42,22z M36,16c0.6,0,1,0.4,1,1
		c0,0.6-0.4,1-1,1s-1-0.4-1-1C35,16.4,35.4,16,36,16z M36,22c0.6,0,1,0.4,1,1c0,0.6-0.4,1-1,1s-1-0.4-1-1C35,22.4,35.4,22,36,22z
		 M36,28c0.6,0,1,0.4,1,1c0,0.6-0.4,1-1,1s-1-0.4-1-1C35,28.4,35.4,28,36,28z M6,36c-0.6,0-1-0.4-1-1c0-0.6,0.4-1,1-1s1,0.4,1,1
		C7,35.6,6.6,36,6,36z M6,30c-0.6,0-1-0.4-1-1c0-0.6,0.4-1,1-1s1,0.4,1,1C7,29.6,6.6,30,6,30z M6,24c-0.6,0-1-0.4-1-1
		c0-0.6,0.4-1,1-1s1,0.4,1,1C7,23.6,6.6,24,6,24z M6,18c-0.6,0-1-0.4-1-1c0-0.6,0.4-1,1-1s1,0.4,1,1C7,17.6,6.6,18,6,18z M12,36
		c-0.6,0-1-0.4-1-1c0-0.6,0.4-1,1-1s1,0.4,1,1C13,35.6,12.6,36,12,36z M12,30c-0.6,0-1-0.4-1-1c0-0.6,0.4-1,1-1s1,0.4,1,1
		C13,29.6,12.6,30,12,30z M12,24c-0.6,0-1-0.4-1-1c0-0.6,0.4-1,1-1s1,0.4,1,1C13,23.6,12.6,24,12,24z M12,18c-0.6,0-1-0.4-1-1
		c0-0.6,0.4-1,1-1s1,0.4,1,1C13,17.6,12.6,18,12,18z M18,36c-0.6,0-1-0.4-1-1c0-0.6,0.4-1,1-1s1,0.4,1,1C19,35.6,18.6,36,18,36z
		 M18,30c-0.6,0-1-0.4-1-1c0-0.6,0.4-1,1-1s1,0.4,1,1C19,29.6,18.6,30,18,30z M18,24c-0.6,0-1-0.4-1-1c0-0.6,0.4-1,1-1s1,0.4,1,1
		C19,23.6,18.6,24,18,24z M18,18c-0.6,0-1-0.4-1-1c0-0.6,0.4-1,1-1s1,0.4,1,1C19,17.6,18.6,18,18,18z M24,36c-0.6,0-1-0.4-1-1
		c0-0.6,0.4-1,1-1s1,0.4,1,1C25,35.6,24.6,36,24,36z M24,30c-0.6,0-1-0.4-1-1c0-0.6,0.4-1,1-1s1,0.4,1,1C25,29.6,24.6,30,24,30z
		 M24,24c-0.6,0-1-0.4-1-1c0-0.6,0.4-1,1-1s1,0.4,1,1C25,23.6,24.6,24,24,24z M24,18c-0.6,0-1-0.4-1-1c0-0.6,0.4-1,1-1s1,0.4,1,1
		C25,17.6,24.6,18,24,18z M30,36c-0.6,0-1-0.4-1-1c0-0.6,0.4-1,1-1s1,0.4,1,1C31,35.6,30.6,36,30,36z M30,30c-0.6,0-1-0.4-1-1
		c0-0.6,0.4-1,1-1s1,0.4,1,1C31,29.6,30.6,30,30,30z M30,24c-0.6,0-1-0.4-1-1c0-0.6,0.4-1,1-1s1,0.4,1,1C31,23.6,30.6,24,30,24z
		 M30,18c-0.6,0-1-0.4-1-1c0-0.6,0.4-1,1-1s1,0.4,1,1C31,17.6,30.6,18,30,18z"/>
	<path class="st1" d="M43.5,9.5c-1.2,0-2.4,0.5-3.2,1.4C38.9,8.6,35.4,7,31.5,7c-1.9,0-5.6,0.9-7.5,2c-1.9-1.1-5.6-2-7.5-2
		c-3.9,0-7.4,1.6-8.8,3.9c-0.8-0.9-2-1.4-3.2-1.4C2,9.5,0,11.5,0,14v26c0,0.6,0.4,1,1,1h46c0.6,0,1-0.4,1-1V14
		C48,11.5,46,9.5,43.5,9.5z M2,39V14c0-1.4,1.1-2.5,2.5-2.5c0.8,0,1.6,0.4,2,1.1C6.7,12.8,7,13,7.4,13h0.9c0.4,0,0.8-0.3,0.9-0.6
		C10,10.4,13,9,16.5,9c2,0,6,1.1,6.8,2c0.4,0.4,1,0.4,1.4,0c0.8-0.8,4.8-2,6.8-2c3.5,0,6.5,1.4,7.3,3.4c0.2,0.4,0.5,0.6,0.9,0.6h0.9
		c0.3,0,0.6-0.2,0.8-0.4c0.5-0.7,1.2-1.1,2-1.1c1.4,0,2.5,1.1,2.5,2.5v14h-5c-0.6,0-1,0.4-1,1s0.4,1,1,1h5v4H36c-0.6,0-1,0.4-1,1
		s0.4,1,1,1h10v3H2z"/>
	<circle class="st1" cx="12" cy="17" r="1"/>
	<circle class="st1" cx="18" cy="17" r="1"/>
	<circle class="st1" cx="24" cy="17" r="1"/>
	<circle class="st1" cx="30" cy="17" r="1"/>
	<circle class="st1" cx="36" cy="17" r="1"/>
	<circle class="st1" cx="12" cy="23" r="1"/>
	<circle class="st1" cx="18" cy="23" r="1"/>
	<circle class="st1" cx="24" cy="23" r="1"/>
	<circle class="st1" cx="30" cy="23" r="1"/>
	<circle class="st1" cx="36" cy="23" r="1"/>
	<circle class="st1" cx="6" cy="17" r="1"/>
	<circle class="st1" cx="6" cy="23" r="1"/>
	<circle class="st1" cx="42" cy="17" r="1"/>
	<circle class="st1" cx="42" cy="23" r="1"/>
	<circle class="st1" cx="12" cy="29" r="1"/>
	<circle class="st1" cx="18" cy="29" r="1"/>
	<circle class="st1" cx="24" cy="29" r="1"/>
	<circle class="st1" cx="30" cy="29" r="1"/>
	<circle class="st1" cx="36" cy="29" r="1"/>
	<circle class="st1" cx="6" cy="29" r="1"/>
	<circle class="st1" cx="12" cy="35" r="1"/>
	<circle class="st1" cx="18" cy="35" r="1"/>
	<circle class="st1" cx="24" cy="35" r="1"/>
	<circle class="st1" cx="30" cy="35" r="1"/>
	<circle class="st1" cx="6" cy="35" r="1"/>
</g>
</svg>
