<?xml version="1.0" encoding="utf-8"?>
<!-- Generator: Adobe Illustrator 21.0.0, SVG Export Plug-In . SVG Version: 6.00 Build 0)  -->
<svg version="1.1" id="Layer_1" xmlns="http://www.w3.org/2000/svg" xmlns:xlink="http://www.w3.org/1999/xlink" x="0px" y="0px"
	 viewBox="0 0 48 48" style="enable-background:new 0 0 48 48;" xml:space="preserve">
<style type="text/css">
	.st0{fill:none;}
	.st1{fill:#303030;}
</style>
<g>
	<polygon class="st0" points="34,35 34,29.6 28.6,35 	"/>
	<path class="st0" d="M40,39c0-0.6,0.4-1,1-1h2v-4h-2c-0.6,0-1-0.4-1-1s0.4-1,1-1h2v-4h-2c-0.6,0-1-0.4-1-1s0.4-1,1-1h2v-4h-2
		c-0.6,0-1-0.4-1-1s0.4-1,1-1h2v-4h-2c-0.6,0-1-0.4-1-1s0.4-1,1-1h2V7.4L6.4,44H13v-2.5c0-0.6,0.4-1,1-1s1,0.4,1,1V44h4v-2.5
		c0-0.6,0.4-1,1-1s1,0.4,1,1V44h4v-2.5c0-0.6,0.4-1,1-1s1,0.4,1,1V44h4v-2.5c0-0.6,0.4-1,1-1s1,0.4,1,1V44h4v-2.5c0-0.6,0.4-1,1-1
		s1,0.4,1,1V44h4v-4h-2C40.4,40,40,39.6,40,39z M36,36c0,0.6-0.4,1-1,1h-8.9c-0.4,0-0.8-0.2-0.9-0.6c-0.2-0.4-0.1-0.8,0.2-1.1
		l8.9-8.9c0.3-0.3,0.7-0.4,1.1-0.2c0.4,0.2,0.6,0.5,0.6,0.9V36z"/>
	<path class="st1" d="M35.4,26.2c-0.4-0.2-0.8-0.1-1.1,0.2l-8.9,8.9c-0.3,0.3-0.4,0.7-0.2,1.1c0.2,0.4,0.5,0.6,0.9,0.6H35
		c0.6,0,1-0.4,1-1v-8.9C36,26.7,35.8,26.4,35.4,26.2z M34,35h-5.4l5.4-5.4V35z"/>
	<path class="st1" d="M44.4,4.1C44,3.9,43.6,4,43.3,4.3l-40,40C3,44.6,2.9,45,3.1,45.4C3.2,45.8,3.6,46,4,46h40c0.6,0,1-0.4,1-1v-6
		v-6v-6v-6v-6V5C45,4.6,44.8,4.2,44.4,4.1z M43,44h-4v-2.5c0-0.6-0.4-1-1-1s-1,0.4-1,1V44h-4v-2.5c0-0.6-0.4-1-1-1s-1,0.4-1,1V44h-4
		v-2.5c0-0.6-0.4-1-1-1s-1,0.4-1,1V44h-4v-2.5c0-0.6-0.4-1-1-1s-1,0.4-1,1V44h-4v-2.5c0-0.6-0.4-1-1-1s-1,0.4-1,1V44H6.4L43,7.4V14
		h-2c-0.6,0-1,0.4-1,1s0.4,1,1,1h2v4h-2c-0.6,0-1,0.4-1,1s0.4,1,1,1h2v4h-2c-0.6,0-1,0.4-1,1s0.4,1,1,1h2v4h-2c-0.6,0-1,0.4-1,1
		s0.4,1,1,1h2v4h-2c-0.6,0-1,0.4-1,1s0.4,1,1,1h2V44z"/>
</g>
</svg>
