<?xml version="1.0" encoding="utf-8"?>
<!-- Generator: Adobe Illustrator 21.0.0, SVG Export Plug-In . SVG Version: 6.00 Build 0)  -->
<svg version="1.1" id="Layer_1" xmlns="http://www.w3.org/2000/svg" xmlns:xlink="http://www.w3.org/1999/xlink" x="0px" y="0px"
	 viewBox="0 0 48 48" style="enable-background:new 0 0 48 48;" xml:space="preserve">
<style type="text/css">
	.st0{fill:none;}
	.st1{fill:#303030;}
</style>
<g>
	<rect x="7" y="29" class="st0" width="2" height="8"/>
	<rect x="7" y="9" class="st0" width="2" height="8"/>
	<path class="st0" d="M23,2H12c-0.6,0-1,0.4-1,1v5h12V2z"/>
	<path class="st0" d="M25,8h12V3c0-0.6-0.4-1-1-1H25V8z"/>
	<path class="st0" d="M30,40c-0.6,0-1-0.4-1-1s0.4-1,1-1h7v-2h-5c-0.6,0-1-0.4-1-1s0.4-1,1-1h5v-2h-3c-0.6,0-1-0.4-1-1s0.4-1,1-1h3
		v-2V10H11v31c0,0.6,0.4,1,1,1h24c0.6,0,1-0.4,1-1v-1H30z"/>
	<rect x="39" y="11" class="st0" width="2" height="8"/>
	<rect x="39" y="29" class="st0" width="2" height="8"/>
	<rect x="16" y="44" class="st0" width="16" height="2"/>
	<path class="st1" d="M42,7c-0.6,0-1,0.4-1,1v1h-2V3c0-1.7-1.3-3-3-3H12c-1.7,0-3,1.3-3,3v4H7V6c0-0.6-0.4-1-1-1S5,5.4,5,6v14
		c0,0.6,0.4,1,1,1s1-0.4,1-1v-1h2v8H7v-1c0-0.6-0.4-1-1-1s-1,0.4-1,1v14c0,0.6,0.4,1,1,1s1-0.4,1-1v-1h2v2c0,1.7,1.3,3,3,3h2v2h-1
		c-0.6,0-1,0.4-1,1s0.4,1,1,1h22c0.6,0,1-0.4,1-1s-0.4-1-1-1h-1v-2h2c1.7,0,3-1.3,3-3v-2h2v1c0,0.6,0.4,1,1,1s1-0.4,1-1V26
		c0-0.6-0.4-1-1-1s-1,0.4-1,1v1h-2v-6h2v1c0,0.6,0.4,1,1,1s1-0.4,1-1V8C43,7.4,42.6,7,42,7z M37,3v5H25V2h11C36.6,2,37,2.4,37,3z
		 M11,3c0-0.6,0.4-1,1-1h11v6H11V3z M7,17V9h2v8H7z M7,37v-8h2v8H7z M32,46H16v-2h16V46z M36,42H12c-0.6,0-1-0.4-1-1V10h26v18v2h-3
		c-0.6,0-1,0.4-1,1s0.4,1,1,1h3v2h-5c-0.6,0-1,0.4-1,1s0.4,1,1,1h5v2h-7c-0.6,0-1,0.4-1,1s0.4,1,1,1h7v1C37,41.6,36.6,42,36,42z
		 M41,29v8h-2v-8H41z M39,19v-8h2v8H39z"/>
</g>
</svg>
